<?xml version="1.0" encoding="utf-8"?>
<!DOCTYPE svg PUBLIC "-//W3C//DTD SVG 1.1//EN" "http://www.w3.org/Graphics/SVG/1.1/DTD/svg11.dtd">
<svg version="1.1" xmlns="http://www.w3.org/2000/svg" xmlns:xlink="http://www.w3.org/1999/xlink" x="0px" y="0px" viewBox="0 0 1000 1000" enable-background="new 0 0 1000 1000" xml:space="preserve">
<g><g transform="translate(0.000000,512.000000) scale(0.100000,-0.100000)"><path d="M4581.5,5007.1c-809.2-72.9-1599.3-349-2268.5-795.8c-145.7-97.8-308.7-212.9-362.4-258.9l-97.8-80.5l-571.5,571.4l-571.4,571.5l-13.4-65.2C667.6,4790.4,96.2,1356,100,1354.1c1.9-3.8,3436.4,567.6,3595.5,596.4l65.2,13.4l-515.8,515.8l-515.8,517.8l47.9,38.3c331.7,266.6,889.8,538.9,1323.2,650.1c408.5,103.6,897.4,141.9,1284.8,97.8c2203.3-251.2,3687.6-2314.6,3210.1-4468.1c-155.4-694.2-479.4-1282.9-993.3-1796.8c-513.9-513.9-1102.6-838-1796.8-993.3c-1513-335.6-3050.9,297.2-3898.5,1603.1c-222.4,341.3-421.9,826.5-500.5,1210l-34.5,166.8H753.9H136.5l26.9-168.7C289.9-1462.9,612-2205,1125.9-2882c176.4-232,623.2-684.6,845.7-857.2c1275.2-983.7,2880.3-1292.5,4410.5-847.6c788.1,228.2,1478.5,640.5,2082.5,1242.6C9264.3-2542.5,9713-1624,9874.1-456.2c42.2,297.2,30.7,951.1-19.2,1282.9c-159.2,1045.1-609.8,1956-1334.7,2703.8C7486.7,4594.8,6040.8,5135.6,4581.5,5007.1z"/></g></g>
</svg>